<svg id="Livello_1" data-name="Livello 1" xmlns="http://www.w3.org/2000/svg" viewBox="0 0 315 315"><defs><style>.cls-1{fill:#878787;}</style></defs><path class="cls-1" d="M0,157.5C0,70.65,70.65,0,157.5,0S315,70.65,315,157.5,244.35,315,157.5,315,0,244.35,0,157.5Zm15,0C15,236.07,78.92,300,157.5,300S300,236.07,300,157.5,236.08,15,157.5,15,15,78.92,15,157.5Z"/><path class="cls-1" d="M7.5,157.5a150,150,0,1,0,150-150A150,150,0,0,0,7.5,157.5Zm46.74-32.19H260.76L157.5,228.57Z"/><path class="cls-1" d="M53,124.81H262L157.5,229.28Zm2.42,1L157.5,227.86,259.55,125.81Z"/></svg>